<svg width="32" height="32" viewBox="0 0 32 32" fill="none" xmlns="http://www.w3.org/2000/svg">
<rect width="32" height="32" rx="4" fill="#1e40af"/>
<circle cx="16" cy="16" r="10" fill="#3b82f6" stroke="#ffffff" stroke-width="1"/>
<path d="M12 14c0-1 1-2 2-2s2 1 2 2-1 2-2 2-2-1-2-2z" fill="#ffffff"/>
<path d="M18 12c0-0.5 0.5-1 1-1s1 0.5 1 1-0.5 1-1 1-1-0.5-1-1z" fill="#ffffff"/>
<path d="M14 20c0-0.5 0.5-1 1-1s1 0.5 1 1-0.5 1-1 1-1-0.5-1-1z" fill="#ffffff"/>
<path d="M20 18c0-0.5 0.5-1 1-1s1 0.5 1 1-0.5 1-1 1-1-0.5-1-1z" fill="#ffffff"/>
</svg>
